<?xml version="1.0" encoding="UTF-8"?><svg id="Layer_1" xmlns="http://www.w3.org/2000/svg" viewBox="0 0 314.39 204.36"><defs><style>.cls-1,.cls-2{fill:#ea1b75;}.cls-2{fill-rule:evenodd;}.cls-3{fill:#fff;}</style></defs><path class="cls-2" d="M59.98,99.99c.29,1.83,1.75,3.3,3.65,3.53,1.66.1,2.97,1.47,2.97,3.15,0,.87-.35,1.66-.92,2.23h0c-.57.64-1.41,1.03-2.33,1.03-2.1,0-2.9-1.44-3.16-3.25-.17-1.21-.85-2.26-1.83-2.91.3,3.45.98,7.27,2.04,12.25-13.26-3.02-25.77-8.51-36.87-16.14,11.1-7.63,23.62-13.11,36.87-16.13-1.07,4.99-1.76,8.79-2.05,12.29.99-.65,1.7-1.72,1.86-2.94.26-1.8,1.06-3.25,3.16-3.25.92,0,1.76.4,2.33,1.03h0c.57.57.92,1.36.92,2.23,0,1.68-1.31,3.05-2.97,3.15-1.91.24-3.4,1.74-3.65,3.6,0,.03-.01.07-.02.11h0ZM40.61,97.55c0-1.84,1.55-3.34,3.46-3.34s3.46,1.5,3.46,3.34-1.55,3.34-3.46,3.34-3.46-1.5-3.46-3.34h0Z"/><path class="cls-2" d="M241.59,105.66c-2.28-.42-4.02-2.41-4.02-4.82,0-.55.1-1.09.27-1.58.46-1.5,1.64-2.69,3.14-3.18.49-.18,1.02-.29,1.57-.3,2.82-.48,4.97-2.75,5.35-5.53.4-2.8,1.64-5.03,4.9-5.03,1.43,0,2.73.61,3.62,1.6h0c.89.88,1.43,2.11,1.43,3.46,0,2.61-2.04,4.74-4.61,4.89-2.97.38-5.27,2.7-5.67,5.59,0,.05-.02.11-.03.17.45,2.84,2.72,5.11,5.66,5.48,2.57.15,4.61,2.27,4.61,4.89,0,1.36-.54,2.57-1.43,3.46h0c-.89.99-2.19,1.6-3.62,1.6-3.25,0-4.5-2.24-4.9-5.03-.39-2.79-2.54-5.05-5.36-5.54-.32,0-.61-.05-.91-.12h0Z"/><path class="cls-2" d="M274.49,94.2c-1.91-1.73-4.86,1.3-6.72,3.13-.97.95-1.45-.8-1.47.45-.07,1.33.4,2.68,1.4,3.71,2.27,2.31,4.75,1.64,7.01-.04,2.34-1.73,5.62-1.72,7.96.14,1.91,1.73,4.86,1.69,6.72-.14.97-.95,1.45-2.2,1.46-3.45h0c.08-1.33-.39-2.68-1.39-3.7-2.27-2.32-4.75-1.65-7.01.03-2.34,1.74-5.62,1.73-7.96-.13h0Z"/><path class="cls-1" d="M184.39,106.04c-8.49,0-15.42,6.33-15.42,14.18s6.93,14.18,15.42,14.18,15.42-6.33,15.42-14.18-6.93-14.18-15.42-14.18ZM184.39,132.5c-7.47,0-13.47-5.47-13.47-12.28s6.06-12.28,13.47-12.28,13.47,5.46,13.47,12.28c.05,6.76-6.01,12.28-13.47,12.28Z"/><path class="cls-1" d="M117.92,106.19c-8.49,0-15.42,6.33-15.42,14.18s6.93,14.18,15.42,14.18,15.42-6.33,15.42-14.18-6.93-14.18-15.42-14.18ZM117.92,132.65c-7.47,0-13.47-5.47-13.47-12.28s6.06-12.28,13.47-12.28,13.47,5.46,13.47,12.28c.05,6.76-6.01,12.28-13.47,12.28Z"/><path class="cls-1" d="M86.07,120.37h1.73c4.38,0,7.63-1.73,7.63-5.5v-.05c0-3.51-2.75-5.75-7.53-5.75h-11.45v24.43h-1.93v-26.21h13.53c5.65,0,9.36,3.05,9.36,7.43v.05c0,4.38-3.26,6.41-7.68,7.02l8.65,11.65h-2.49l-9.82-13.08Z"/><path class="cls-1" d="M230.46,107.29h-28.42v1.71h28.42v-1.71Z"/><path class="cls-1" d="M217.08,111.21h-1.86v22.28h1.86v-22.28Z"/><path class="cls-1" d="M157.84,119.99c2.15-.85,4.45-2.65,4.45-6.2v-.05c0-3.95-3.4-6.45-8.5-6.45h-13.65v26.21h14.2c5.65,0,9.4-2.75,9.4-7.15v-.05c0-3.65-2.75-5.45-5.9-6.3ZM161.79,126.34c0,3.3-2.85,5.35-7.35,5.35h-12.35v-22.61h11.65c4.2,0,6.55,1.95,6.55,4.85v.1c0,3.5-2.8,5.4-6.75,5.4h-5.75v1.8h6c5.15,0,8,1.85,8,5.1h0Z"/><g id="A"><polygon class="cls-3" points="89.14 70.03 74.4 94.17 76.42 94.17 90.15 71.69 97.56 83.81 99.04 82.93 91.17 70.03 89.14 70.03"/><polygon class="cls-3" points="100 87.8 103.89 94.17 105.91 94.17 101.47 86.91 100 87.8"/></g><g id="A-2"><polygon class="cls-3" points="213.81 70.03 199.06 94.17 201.08 94.17 214.82 71.69 222.23 83.81 223.7 82.93 215.83 70.03 213.81 70.03"/><polygon class="cls-3" points="224.66 87.8 228.56 94.17 230.58 94.17 226.14 86.91 224.66 87.8"/></g><path id="C" class="cls-3" d="M132.21,87.42c-2,3.07-5.68,5.13-9.9,5.13-6.35,0-11.49-4.67-11.49-10.44s5.15-10.44,11.49-10.44c4.2,0,7.88,2.05,9.88,5.11l1.45-.78c-2.28-3.58-6.5-5.98-11.33-5.98-7.25,0-13.12,5.4-13.12,12.07s5.87,12.07,13.12,12.07c4.83,0,9.05-2.4,11.33-5.98l-1.43-.77Z"/><g id="U"><path class="cls-3" d="M183.61,94.27c-6.75,0-11.52-3.63-11.52-10.34v-14h2.09v13.83c0,5.65,3.57,8.9,9.52,8.9s9.36-2.94,9.36-8.73v-14h2.09v13.79c0,6.88-4.7,10.54-11.52,10.54Z"/></g><g id="Q"><path class="cls-3" d="M158.19,91.15c-1.59.76-3.4,1.19-5.33,1.19-6.35,0-11.49-4.67-11.49-10.44,0-1.08.18-2.11.51-3.09l-1.36-1.03c-.5,1.28-.78,2.66-.78,4.1,0,6.66,5.87,12.07,13.12,12.07,2.47,0,4.78-.63,6.75-1.72l-1.42-1.08Z"/><path class="cls-3" d="M162.59,89.98c2.11-2.14,3.39-4.98,3.39-8.1,0-6.66-5.87-12.07-13.12-12.07-4.94,0-9.23,2.51-11.47,6.21l1.31,1.01c1.93-3.31,5.76-5.57,10.17-5.57,6.35,0,11.49,4.67,11.49,10.44,0,2.73-1.16,5.22-3.05,7.08l-5.03-3.91-1.4,1.37,4.9,3.79s0,0,0,0l1.33,1.03s0,0,0,0l1.87,1.45h0s2.17,1.68,2.17,1.68l1.4-1.34-3.96-3.08Z"/></g></svg>